<?xml version="1.0" standalone="no"?>
<!DOCTYPE svg PUBLIC "-//W3C//DTD SVG 20010904//EN"
 "http://www.w3.org/TR/2001/REC-SVG-20010904/DTD/svg10.dtd">
<svg version="1.0" xmlns="http://www.w3.org/2000/svg"
 width="32.000000pt" height="33.000000pt" viewBox="0 0 32.000000 33.000000"
 preserveAspectRatio="xMidYMid meet">

<g transform="translate(0.000000,33.000000) scale(0.100000,-0.100000)"
fill="#000000" stroke="none">
<path d="M93 283 c-9 -3 -13 -29 -13 -80 0 -55 3 -74 13 -71 7 3 14 28 17 59
5 54 5 54 41 57 25 2 40 -3 54 -18 30 -33 11 -68 -50 -92 -68 -27 -75 -34 -75
-79 l0 -39 70 0 c57 0 74 4 90 20 23 23 24 37 10 75 -7 18 -7 33 1 47 18 34 2
86 -34 108 -30 19 -95 25 -124 13z m125 -200 c4 -25 -25 -37 -72 -31 -38 4
-36 20 4 41 43 21 64 18 68 -10z"/>
</g>
</svg>
